<svg width="24" height="24" viewBox="0 0 24 24" fill="none" xmlns="http://www.w3.org/2000/svg">
<path d="M16.4922 3.375C14.6369 3.375 13.0125 4.17281 12 5.52137C10.9875 4.17281 9.36309 3.375 7.50781 3.375C6.03098 3.37666 4.61512 3.96407 3.57085 5.00835C2.52657 6.05262 1.93916 7.46848 1.9375 8.94531C1.9375 15.2344 11.2624 20.3249 11.6595 20.5352C11.7642 20.5915 11.8812 20.6209 12 20.6209C12.1188 20.6209 12.2358 20.5915 12.3405 20.5352C12.7376 20.3249 22.0625 15.2344 22.0625 8.94531C22.0608 7.46848 21.4734 6.05262 20.4292 5.00835C19.3849 3.96407 17.969 3.37666 16.4922 3.375ZM12 19.0797C10.3595 18.1237 3.375 13.769 3.375 8.94531C3.37643 7.84966 3.8123 6.79929 4.58705 6.02455C5.36179 5.2498 6.41216 4.81393 7.50781 4.8125C9.25527 4.8125 10.7224 5.74328 11.3352 7.23828C11.3893 7.37011 11.4814 7.48286 11.5998 7.56221C11.7182 7.64156 11.8575 7.68393 12 7.68393C12.1425 7.68393 12.2818 7.64156 12.4002 7.56221C12.5186 7.48286 12.6107 7.37011 12.6648 7.23828C13.2776 5.74059 14.7447 4.8125 16.4922 4.8125C17.5878 4.81393 18.6382 5.2498 19.413 6.02455C20.1877 6.79929 20.6236 7.84966 20.625 8.94531C20.625 13.7618 13.6387 18.1229 12 19.0797Z" fill="#1C1917"/>
</svg>
