<svg width="24" height="23" viewBox="0 0 24 23" fill="none" xmlns="http://www.w3.org/2000/svg">
<rect width="23" height="23" transform="translate(0.5)" fill="white"/>
<path d="M22.0625 8.44531C22.0625 14.7344 12.7376 19.8249 12.3405 20.0352C12.2358 20.0915 12.1188 20.1209 12 20.1209C11.8812 20.1209 11.7642 20.0915 11.6595 20.0352C11.2624 19.8249 1.9375 14.7344 1.9375 8.44531C1.93916 6.96848 2.52657 5.55262 3.57085 4.50835C4.61512 3.46407 6.03098 2.87666 7.50781 2.875C9.36309 2.875 10.9875 3.67281 12 5.02137C13.0125 3.67281 14.6369 2.875 16.4922 2.875C17.969 2.87666 19.3849 3.46407 20.4292 4.50835C21.4734 5.55262 22.0608 6.96848 22.0625 8.44531Z" fill="black"/>
</svg>
