<svg width="138" height="52" viewBox="0 0 138 52" fill="none" xmlns="http://www.w3.org/2000/svg">
<rect width="138" height="52" rx="26" fill="#D6D3D1"/>
<path d="M38.8879 20.0851C39.1195 19.5484 39.8805 19.5484 40.1121 20.0851L41.5655 23.4531C41.6635 23.6803 41.8794 23.8345 42.1262 23.8536L45.8533 24.1416C46.4513 24.1878 46.6889 24.9385 46.2264 25.3204L43.4235 27.6346C43.2258 27.7978 43.1392 28.0599 43.2008 28.3088L44.0634 31.7944C44.2053 32.3676 43.5869 32.8286 43.078 32.529L39.8382 30.6217C39.6295 30.4988 39.3705 30.4988 39.1618 30.6217L35.922 32.529C35.4131 32.8286 34.7948 32.3676 34.9366 31.7944L35.7992 28.3088C35.8608 28.0599 35.7742 27.7978 35.5765 27.6346L32.7736 25.3204C32.3111 24.9385 32.5487 24.1878 33.1467 24.1416L36.8738 23.8536C37.1206 23.8345 37.3365 23.6803 37.4346 23.4531L38.8879 20.0851Z" fill="#1C1917"/>
<path d="M60.588 31V19.8H64.412C65.724 19.8 66.8013 20.0347 67.644 20.504C68.4973 20.9627 69.1267 21.6133 69.532 22.456C69.948 23.288 70.156 24.2693 70.156 25.4C70.156 26.5307 69.948 27.5173 69.532 28.36C69.1267 29.192 68.4973 29.8427 67.644 30.312C66.8013 30.7707 65.724 31 64.412 31H60.588ZM62.636 29.24H64.316C65.2547 29.24 65.996 29.0907 66.54 28.792C67.084 28.4827 67.4733 28.0453 67.708 27.48C67.9427 26.904 68.06 26.2107 68.06 25.4C68.06 24.6 67.9427 23.912 67.708 23.336C67.4733 22.76 67.084 22.3173 66.54 22.008C65.996 21.6987 65.2547 21.544 64.316 21.544H62.636V29.24ZM71.963 31V19.8H74.011V31H71.963ZM75.4618 31L79.5578 19.8H81.8618L85.9578 31H83.7818L82.8858 28.408H78.5178L77.6058 31H75.4618ZM79.0778 26.808H82.3258L80.6938 22.152L79.0778 26.808ZM87.4005 31V19.8H91.5125C92.4085 19.8 93.1445 19.9547 93.7205 20.264C94.3072 20.5627 94.7445 20.9733 95.0325 21.496C95.3205 22.008 95.4645 22.5787 95.4645 23.208C95.4645 23.8907 95.2832 24.5147 94.9205 25.08C94.5685 25.6453 94.0138 26.056 93.2565 26.312L95.5765 31H93.2245L91.1445 26.584H89.4485V31H87.4005ZM89.4485 25.08H91.3845C92.0672 25.08 92.5685 24.9147 92.8885 24.584C93.2085 24.2533 93.3685 23.816 93.3685 23.272C93.3685 22.7387 93.2085 22.312 92.8885 21.992C92.5792 21.672 92.0725 21.512 91.3685 21.512H89.4485V25.08ZM99.8746 31V27.016L96.1146 19.8H98.4346L100.915 24.968L103.379 19.8H105.667L101.923 27.016V31H99.8746Z" fill="#1C1917"/>
</svg>
