<svg width="48" height="48" viewBox="0 0 48 48" fill="none" xmlns="http://www.w3.org/2000/svg">
<path fill-rule="evenodd" clip-rule="evenodd" d="M7.20001 12C7.20001 11.3635 7.45287 10.753 7.90296 10.3029C8.35304 9.85283 8.96349 9.59998 9.60001 9.59998H38.4C39.0365 9.59998 39.647 9.85283 40.0971 10.3029C40.5472 10.753 40.8 11.3635 40.8 12C40.8 12.6365 40.5472 13.2469 40.0971 13.697C39.647 14.1471 39.0365 14.4 38.4 14.4H9.60001C8.96349 14.4 8.35304 14.1471 7.90296 13.697C7.45287 13.2469 7.20001 12.6365 7.20001 12ZM7.20001 24C7.20001 23.3635 7.45287 22.753 7.90296 22.3029C8.35304 21.8528 8.96349 21.6 9.60001 21.6H38.4C39.0365 21.6 39.647 21.8528 40.0971 22.3029C40.5472 22.753 40.8 23.3635 40.8 24C40.8 24.6365 40.5472 25.2469 40.0971 25.697C39.647 26.1471 39.0365 26.4 38.4 26.4H9.60001C8.96349 26.4 8.35304 26.1471 7.90296 25.697C7.45287 25.2469 7.20001 24.6365 7.20001 24ZM7.20001 36C7.20001 35.3635 7.45287 34.753 7.90296 34.3029C8.35304 33.8528 8.96349 33.6 9.60001 33.6H38.4C39.0365 33.6 39.647 33.8528 40.0971 34.3029C40.5472 34.753 40.8 35.3635 40.8 36C40.8 36.6365 40.5472 37.2469 40.0971 37.697C39.647 38.1471 39.0365 38.4 38.4 38.4H9.60001C8.96349 38.4 8.35304 38.1471 7.90296 37.697C7.45287 37.2469 7.20001 36.6365 7.20001 36Z" fill="#57534E"/>
</svg>
