<svg width="5" height="22" viewBox="0 0 5 22" fill="none" xmlns="http://www.w3.org/2000/svg">
<path d="M0.299805 19.125C0.299805 18.5614 0.523688 18.0209 0.922203 17.6224C1.32072 17.2239 1.86122 17 2.4248 17C2.98839 17 3.52889 17.2239 3.92741 17.6224C4.32592 18.0209 4.5498 18.5614 4.5498 19.125C4.5498 19.6886 4.32592 20.2291 3.92741 20.6276C3.52889 21.0261 2.98839 21.25 2.4248 21.25C1.86122 21.25 1.32072 21.0261 0.922203 20.6276C0.523688 20.2291 0.299805 19.6886 0.299805 19.125ZM0.299805 10.625C0.299805 10.0614 0.523688 9.52091 0.922203 9.1224C1.32072 8.72388 1.86122 8.5 2.4248 8.5C2.98839 8.5 3.52889 8.72388 3.92741 9.1224C4.32592 9.52091 4.5498 10.0614 4.5498 10.625C4.5498 11.1886 4.32592 11.7291 3.92741 12.1276C3.52889 12.5261 2.98839 12.75 2.4248 12.75C1.86122 12.75 1.32072 12.5261 0.922203 12.1276C0.523688 11.7291 0.299805 11.1886 0.299805 10.625ZM0.299805 2.125C0.299805 1.56141 0.523688 1.02091 0.922203 0.622398C1.32072 0.223883 1.86122 0 2.4248 0C2.98839 0 3.52889 0.223883 3.92741 0.622398C4.32592 1.02091 4.5498 1.56141 4.5498 2.125C4.5498 2.68859 4.32592 3.22909 3.92741 3.6276C3.52889 4.02612 2.98839 4.25 2.4248 4.25C1.86122 4.25 1.32072 4.02612 0.922203 3.6276C0.523688 3.22909 0.299805 2.68859 0.299805 2.125Z" fill="black"/>
</svg>
