<svg width="64" height="46" viewBox="0 0 64 46" fill="none" xmlns="http://www.w3.org/2000/svg">
<path fill-rule="evenodd" clip-rule="evenodd" d="M52 23C52 34.046 43.046 43 32 43C20.954 43 12 34.046 12 23C12 11.954 20.954 3 32 3C43.046 3 52 11.954 52 23ZM38 17C38 18.5913 37.3679 20.1174 36.2426 21.2426C35.1174 22.3679 33.5913 23 32 23C30.4087 23 28.8826 22.3679 27.7574 21.2426C26.6321 20.1174 26 18.5913 26 17C26 15.4087 26.6321 13.8826 27.7574 12.7574C28.8826 11.6321 30.4087 11 32 11C33.5913 11 35.1174 11.6321 36.2426 12.7574C37.3679 13.8826 38 15.4087 38 17ZM32 40C35.4326 40.0055 38.7856 38.9669 41.614 37.022C42.822 36.192 43.338 34.612 42.634 33.326C41.18 30.66 38.18 29 32 29C25.82 29 22.82 30.66 21.364 33.326C20.662 34.612 21.178 36.192 22.386 37.022C25.2144 38.9669 28.5674 40.0055 32 40Z" fill="#57534E"/>
</svg>
